<svg width="18" height="19" viewBox="0 0 18 19" fill="none" xmlns="http://www.w3.org/2000/svg">
<path d="M8.72278 0.777222C6.99758 0.777222 5.31112 1.2888 3.87667 2.24728C2.44221 3.20575 1.32419 4.56806 0.663986 6.16194C0.00377945 7.75582 -0.168961 9.50968 0.16761 11.2017C0.50418 12.8938 1.33494 14.448 2.55485 15.6679C3.77475 16.8878 5.329 17.7186 7.02106 18.0552C8.71311 18.3917 10.467 18.219 12.0608 17.5588C13.6547 16.8986 15.017 15.7806 15.9755 14.3461C16.934 12.9117 17.4456 11.2252 17.4456 9.5C17.4411 7.18794 16.5207 4.97184 14.8858 3.33696C13.2509 1.70208 11.0348 0.781655 8.72278 0.777222ZM9.72926 13.5259H9.39377V14.1969C9.39377 14.3748 9.32308 14.5455 9.19724 14.6713C9.07141 14.7972 8.90074 14.8679 8.72278 14.8679C8.54483 14.8679 8.37416 14.7972 8.24833 14.6713C8.12249 14.5455 8.0518 14.3748 8.0518 14.1969V13.5259H6.70984C6.53188 13.5259 6.36121 13.4552 6.23538 13.3294C6.10955 13.2035 6.03885 13.0329 6.03885 12.8549C6.03885 12.677 6.10955 12.5063 6.23538 12.3805C6.36121 12.2546 6.53188 12.1839 6.70984 12.1839H9.72926C9.99619 12.1839 10.2522 12.0779 10.4409 11.8891C10.6297 11.7004 10.7357 11.4444 10.7357 11.1775C10.7357 10.9105 10.6297 10.6545 10.4409 10.4658C10.2522 10.277 9.99619 10.171 9.72926 10.171H7.71631C7.09347 10.171 6.49613 9.92356 6.05571 9.48314C5.61529 9.04273 5.36787 8.44539 5.36787 7.82255C5.36787 7.1997 5.61529 6.60237 6.05571 6.16195C6.49613 5.72153 7.09347 5.4741 7.71631 5.4741H8.0518V4.80312C8.0518 4.62516 8.12249 4.4545 8.24833 4.32866C8.37416 4.20283 8.54483 4.13214 8.72278 4.13214C8.90074 4.13214 9.07141 4.20283 9.19724 4.32866C9.32308 4.4545 9.39377 4.62516 9.39377 4.80312V5.4741H10.7357C10.9137 5.4741 11.0844 5.5448 11.2102 5.67063C11.336 5.79646 11.4067 5.96713 11.4067 6.14509C11.4067 6.32304 11.336 6.49371 11.2102 6.61954C11.0844 6.74538 10.9137 6.81607 10.7357 6.81607H7.71631C7.44938 6.81607 7.19338 6.92211 7.00463 7.11086C6.81587 7.29961 6.70984 7.55561 6.70984 7.82255C6.70984 8.08948 6.81587 8.34548 7.00463 8.53423C7.19338 8.72298 7.44938 8.82902 7.71631 8.82902H9.72926C10.3521 8.82902 10.9494 9.07644 11.3899 9.51686C11.8303 9.95728 12.0777 10.5546 12.0777 11.1775C12.0777 11.8003 11.8303 12.3976 11.3899 12.8381C10.9494 13.2785 10.3521 13.5259 9.72926 13.5259Z" fill="#FF9900"/>
</svg>
