<svg width="204" height="51" viewBox="0 0 204 51" fill="none" xmlns="http://www.w3.org/2000/svg">
<g clip-path="url(#clip0_452_2)">
<path d="M42.7383 13.0491V14.37L39.9222 15.8937V13.8511L30.6461 8.5392L30.6476 8.53606L21.3684 3.22421L12.0907 8.53606L12.0922 8.5392L2.81455 13.8511V35.1079L3.92134 35.7416V38.951L0 36.7055V12.2471L10.6842 6.12859H10.6905L21.3684 0.0147705L32.0478 6.12859H32.0541L42.7383 12.2471V13.0491ZM42.7383 34.383V36.7087L32.0541 42.8256H32.0478L21.3668 48.941L17.2916 46.609L20.011 44.9501L21.3715 45.7284L30.6476 40.4182L30.6461 40.4166L39.9222 35.1047V32.9253L42.7383 34.383Z" fill="#020202"/>
<path fill-rule="evenodd" clip-rule="evenodd" d="M5.1106 16.0667L38.0131 33.4127L5.52128 50.9852L5.1106 16.0667Z" fill="#47115F"/>
<path fill-rule="evenodd" clip-rule="evenodd" d="M46.1459 34.6644L26.6628 24.393L45.9032 13.9879L46.1459 34.6644Z" fill="#FE9900"/>
<path d="M149.824 20.88V22.6868H146.112V33.5228C146.112 34.2289 146.204 34.7839 146.391 35.1834C146.572 35.5828 146.957 35.7793 147.547 35.7793C147.815 35.7793 148.12 35.6866 148.464 35.501C148.802 35.3217 149.071 35.1252 149.263 34.9176L149.964 35.8548C149.28 36.6599 148.621 37.2449 147.979 37.6144C147.338 37.9902 146.607 38.1758 145.797 38.1758C144.571 38.1758 143.661 37.9446 143.071 37.476C142.475 37.0122 142.113 36.4744 141.974 35.8721C141.839 35.2698 141.769 34.5701 141.769 33.765V22.6868H139.213V20.88C140.333 20.88 141.279 20.5514 142.05 19.891C142.819 19.2305 143.398 18.3751 143.788 17.3152C144.179 16.2554 144.395 15.1279 144.425 13.9344H146.112V20.88H149.824Z" fill="#020202"/>
<path d="M128.987 15.4283C128.987 14.8669 129.208 14.3228 129.652 13.796C130.089 13.2629 130.69 12.9972 131.443 12.9972C132.12 12.9972 132.699 13.2283 133.176 13.6969C133.651 14.1608 133.89 14.7395 133.89 15.4283C133.89 16.117 133.651 16.6957 133.176 17.1596C132.699 17.6282 132.12 17.8593 131.443 17.8593C130.69 17.8593 130.089 17.5936 129.652 17.0605C129.208 16.5337 128.987 15.9896 128.987 15.4283Z" fill="#FE9900"/>
<path d="M133.616 21.02V35.3563C133.616 35.8139 133.708 36.1332 133.89 36.3124C134.071 36.4917 134.421 36.5782 134.94 36.5782H135.506V37.7937H127.37V36.5782H127.936C128.461 36.5782 128.811 36.4917 128.998 36.3124C129.179 36.1332 129.266 35.8139 129.266 35.3563V26.1935C129.266 25.4764 128.928 25.1179 128.251 25.1179H127.446V24.0754C129.412 23.9952 131.006 22.9762 132.214 21.02H133.616Z" fill="#020202"/>
<path d="M116.939 33.7021V24.5958C115.942 23.6476 114.843 23.1727 113.647 23.1727C113.07 23.1727 112.48 23.352 111.884 23.7058C111.29 24.0581 110.776 24.7059 110.338 25.6557C109.905 26.5992 109.69 27.8792 109.69 29.4941C109.69 31.3858 110.04 32.8514 110.747 33.8814C111.447 34.9176 112.485 35.4318 113.852 35.4318C114.884 35.4318 115.912 34.8532 116.939 33.7021ZM116.939 35.8202H116.724C116.058 36.4571 115.422 36.9493 114.808 37.2968C114.202 37.638 113.617 37.8755 113.064 37.9965C112.509 38.1176 111.943 38.1758 111.366 38.1758C109.918 38.1758 108.745 37.8928 107.839 37.3188C106.929 36.7464 106.263 36.0451 105.832 35.207C105.405 34.3735 105.12 33.5401 104.985 32.7114C104.852 31.8906 104.787 31.1138 104.787 30.3967C104.787 29.013 105.113 27.6244 105.768 26.2234C106.415 24.8223 107.373 23.6649 108.64 22.745C109.901 21.8236 111.383 21.366 113.088 21.366C114.394 21.366 115.609 21.7717 116.724 22.5768H116.939V18.5198C116.939 17.8483 116.881 17.4127 116.77 17.2288C116.659 17.0369 116.391 16.9331 115.959 16.9158H115.357H115.154V15.8733C117.242 15.5792 118.76 14.565 119.7 12.8227H121.282V35.0906C121.282 35.6473 121.357 36.0341 121.516 36.2542C121.672 36.4744 122.034 36.5845 122.606 36.5845H123.173V37.7937H116.939V35.8202ZM87.1083 21.02H88.7129V32.0573C88.7129 33.1281 88.8002 33.8924 88.9762 34.35C89.1569 34.8123 89.5771 35.045 90.2542 35.045C90.8441 35.045 91.6829 34.8296 92.7691 34.4081C93.86 33.9851 94.6433 33.6093 95.1222 33.2791V26.2234C95.1222 25.5755 94.794 25.25 94.1407 25.25H93.3003V24.209C95.2094 24.0062 96.738 22.9416 97.8828 21.02H99.4637V35.3564C99.4637 35.8375 99.5636 36.1615 99.7618 36.3297C99.96 36.498 100.304 36.5782 100.789 36.5782H101.355V37.7937H95.1222V35.501H94.8066C92.2093 37.2842 89.8625 38.1758 87.7615 38.1758C86.8625 38.1758 86.0744 37.9965 85.391 37.638C84.7092 37.2779 84.3698 36.4744 84.3698 35.2243V26.2297C84.3698 25.5755 84.0321 25.25 83.355 25.25H82.5146V24.209C83.4311 24.1618 84.2937 23.8332 85.1119 23.2246C85.9222 22.6114 86.5882 21.8755 87.1083 21.02ZM67.0766 19.8328L63.8942 28.4862H70.6824L67.4952 19.8328H67.0766ZM69.9831 13.4831L77.098 32.5558C77.4484 33.4867 77.8036 34.2682 78.1715 34.894C78.5393 35.5246 79.0468 35.9004 79.6889 36.0231C79.8459 36.0451 80.1742 36.0577 80.6641 36.0577V37.7937H71.564V36.0577H72.72C73.0466 36.0577 73.2274 35.9413 73.275 35.7102V35.4727C73.275 35.4145 73.2052 35.1944 73.0704 34.8123L71.564 30.5697H63.0839L61.7583 34.2871C61.7409 34.3563 61.6822 34.5591 61.5712 34.8767C61.4665 35.2007 61.4031 35.4208 61.373 35.5419V35.7794C61.4554 35.9649 61.7472 36.0577 62.2483 36.0577H63.1188V37.7937H56.0452V36.0577C56.727 36.0231 57.282 35.924 57.7022 35.7621C58.1287 35.5938 58.449 35.3925 58.6647 35.1425C58.8867 34.894 59.0389 34.6676 59.1261 34.471C59.2086 34.2745 59.3766 33.8405 59.6224 33.1753L65.0501 18.9365C65.3308 18.1251 65.4703 17.6282 65.4703 17.4426C65.4703 16.9095 65.0501 16.6438 64.205 16.6438H63.8197V15.5258C64.8456 15.4739 65.6511 15.3245 66.2362 15.0635C66.8197 14.8087 67.5888 14.2819 68.5465 13.4831H69.9831Z" fill="#020202"/>
<path d="M153.395 14.0036H164.603C170.176 14.0036 173.93 15.2191 175.856 17.6502C177.787 20.0875 178.75 22.7151 178.75 25.5519C178.75 27.1558 178.476 28.689 177.922 30.1593C177.367 31.6295 176.538 32.9426 175.441 34.0952C174.339 35.2462 172.961 36.1504 171.302 36.8093C169.651 37.4634 167.772 37.7937 165.652 37.7937H153.395V36.0576H154.068C154.767 36.0576 155.276 35.9366 155.585 35.6865C155.899 35.4381 156.058 34.9569 156.058 34.2509V17.5464C156.058 16.8403 155.899 16.3607 155.585 16.1107C155.276 15.8685 154.767 15.7412 154.068 15.7412H153.395V14.0036ZM161.661 17.8939V33.9033C161.661 34.6676 161.825 35.155 162.151 35.3626C162.478 35.5718 162.981 35.6865 163.651 35.7101H164.707C169.926 35.5545 172.586 32.2947 172.693 25.934V24.3065C172.639 22.9117 172.383 21.616 171.909 20.4114C171.437 19.2132 170.627 18.2115 169.475 17.408C168.326 16.6092 166.797 16.1799 164.882 16.1233H163.586C162.944 16.1233 162.467 16.2271 162.145 16.4299C161.825 16.6328 161.661 17.1187 161.661 17.8939ZM182.218 14.0036H192.759C194.499 14.0036 196.068 14.1089 197.475 14.3102C198.888 14.5131 200.136 15.0288 201.235 15.856C202.332 16.6784 202.88 17.9285 202.88 19.5906C202.88 20.5388 202.617 21.3848 202.086 22.1254C201.555 22.8598 200.878 23.4511 200.061 23.8898C199.243 24.3238 198.433 24.5911 197.621 24.6886V25.0015C198.736 25.066 199.787 25.349 200.76 25.8522C201.736 26.357 202.517 27.0678 203.114 27.9767C203.703 28.8918 204 29.9454 204 31.1373C204 33.1234 203.399 34.6047 202.191 35.5938C200.982 36.5781 199.722 37.1914 198.42 37.4351C197.113 37.6726 195.94 37.7937 194.895 37.7937H182.189V36.0576H182.888C183.707 36.0576 184.243 35.8957 184.5 35.5765C184.752 35.2525 184.878 34.6629 184.878 33.8059V17.993C184.878 17.4253 184.833 16.9787 184.733 16.6611C184.639 16.3434 184.447 16.106 184.167 15.9597C183.881 15.8151 183.455 15.7412 182.888 15.7412H182.218V14.0036ZM190.482 17.8939V24.0297C190.739 24.0533 191.113 24.0643 191.603 24.0643C195.176 24.0643 196.961 22.8252 196.961 20.3533C196.961 18.7273 196.482 17.6108 195.52 17.0023C194.562 16.3953 193.547 16.0887 192.472 16.0887C191.597 16.0887 191.042 16.2271 190.822 16.5054C190.593 16.7774 190.482 17.2397 190.482 17.8939ZM190.482 26.2815V33.9033C190.482 34.5528 190.6 35.0104 190.826 35.2761C191.055 35.5482 191.603 35.6928 192.472 35.7101H192.724C194.09 35.6865 195.169 35.3862 195.946 34.8012C196.728 34.2163 197.264 33.5511 197.551 32.8042C197.837 32.0635 197.978 31.3921 197.978 30.7898C197.978 30.425 197.913 30.0146 197.778 29.5633C197.649 29.1057 197.399 28.6434 197.037 28.1685C196.676 27.6936 196.149 27.2832 195.455 26.9294C194.76 26.5756 193.874 26.357 192.788 26.2815H190.482Z" fill="#47115F"/>
</g>
<defs>
<clipPath id="clip0_452_2">
<rect width="204" height="51" fill="white"/>
</clipPath>
</defs>
</svg>
