<svg width="476" height="688" viewBox="0 0 476 688" fill="none" xmlns="http://www.w3.org/2000/svg">
<path fill-rule="evenodd" clip-rule="evenodd" d="M188.982 485.652C176.16 476.84 178.023 439.769 177.902 427.676C177.782 415.794 177.703 404.22 176.975 396.511C176.85 394.616 176.725 392.72 176.599 390.824C178.034 382.846 179.468 374.869 180.902 366.891C181.482 363.493 182.06 360.097 182.639 356.699C179.292 355.944 175.944 355.189 172.597 354.434C167.337 351.565 162.077 348.696 156.818 345.827C152.854 341.662 148.889 337.497 144.926 333.332C142.484 329.645 140.043 325.959 137.603 322.271C136.973 321.932 136.345 321.592 135.715 321.252C136.71 328.198 137.703 335.144 138.698 342.09C138.874 343.461 139.05 344.832 139.227 346.203C140.762 350.959 142.297 355.716 143.832 360.472C145.997 364.524 148.161 368.576 150.326 372.628C152.993 378.366 155.661 384.104 158.329 389.842C159.36 393.29 160.392 396.738 161.424 400.186C161.651 403.256 161.877 406.326 162.104 409.396C158.128 414.43 154.152 419.464 150.176 424.497C141.003 400.712 105.588 351.025 83.4349 334.275C80.4503 332.018 79.731 327.767 78.0783 324.41C63.7824 295.367 49.3539 266.325 41.6841 227.142C41.5233 223.378 40.199 218.851 41.2878 216.418C41.5599 215.81 40.1434 212.926 41.0806 213.025C42.8925 213.217 49.4751 217.306 57.4688 217.271C62.4368 217.25 67.9496 215.635 73.2033 210.506C75.4343 208.327 76.8934 205.032 77.3948 199.888C79.0056 183.378 84.2761 178.575 101.857 182.296C104.675 184.889 107.494 187.481 110.312 190.074C111.772 183.833 113.231 177.591 114.691 171.35C115.925 172.609 117.158 173.867 118.391 175.125C118.391 175.125 130.169 190.074 130.244 190.526C130.32 190.98 141.645 201.55 141.645 201.55C144.438 203.739 147.231 205.929 150.026 208.118C153.725 209.905 157.424 211.691 161.124 213.478C163.716 213.503 166.309 213.528 168.901 213.554C172.198 212.346 175.494 211.137 178.791 209.93C180.829 208.042 182.868 206.155 184.907 204.268C184.907 204.268 190.268 199.586 190.871 199.435C191.475 199.284 195.401 198.077 195.854 198.077C196.307 198.077 200.837 199.209 200.837 199.209C200.837 199.209 207.858 203.965 208.312 204.268C208.764 204.569 216.375 206.577 217.07 207.665C217.763 208.753 224.62 208.948 225.224 209.1C225.828 209.251 236.323 209.629 236.323 209.629C238.915 208.762 241.506 207.894 244.099 207.027C244.249 204.698 244.401 202.369 244.552 200.04C244.301 198.48 244.049 196.92 243.797 195.359C247.647 200.745 251.498 206.131 255.348 211.516C258.394 216.751 261.439 221.985 264.485 227.22C269.342 234.342 274.199 241.464 279.056 248.586C281.371 251.757 283.686 254.929 286.002 258.099C289.022 261.245 292.042 264.391 295.062 267.537C295.062 267.537 305.632 274.709 306.236 274.935C306.841 275.162 318.694 281.881 318.694 281.881C326.117 284.927 333.542 287.972 340.966 291.017C342.954 292.149 344.942 293.282 346.93 294.414C350.102 296.805 353.272 299.196 356.443 301.587C353.449 301.36 350.454 301.134 347.459 300.907C343.005 301.183 338.55 301.461 334.096 301.737C331.428 302.241 328.761 302.744 326.093 303.248C323.677 304.279 321.261 305.311 318.845 306.343C317.385 307.652 315.926 308.961 314.466 310.269C313.183 312.811 311.899 315.353 310.616 317.895C310.012 321.544 309.408 325.193 308.804 328.843C308.905 330.956 309.005 333.071 309.106 335.184C306.841 335.235 304.576 335.285 302.312 335.335C295.315 328.565 288.319 321.796 281.323 315.026C275.534 309.716 269.746 304.406 263.958 299.096C263.404 290.137 262.85 281.178 262.297 272.219C260.686 264.795 259.076 257.371 257.465 249.946C255.804 245.492 254.143 241.037 252.482 236.583C249.009 231.953 245.536 227.322 242.063 222.691C238.666 220.728 235.268 218.765 231.871 216.802C229.354 216.223 226.837 215.644 224.321 215.065C222.409 215.619 220.496 216.172 218.583 216.726C215.966 218.84 213.348 220.954 210.731 223.068C209.346 224.075 207.963 225.081 206.578 226.089C206.201 229.083 205.823 232.078 205.446 235.073C204.54 237.942 203.634 240.811 202.728 243.681C198.389 288.821 195.284 379.82 213.299 410.233C213.274 412.825 213.249 415.417 213.224 418.009C213.501 421.86 213.778 425.711 214.055 429.561C214.155 432.48 214.256 435.4 214.356 438.319C214.784 444.056 215.212 449.795 215.639 455.532C215.01 458.854 214.381 462.176 213.752 465.498C206.479 470.783 199.205 476.068 191.933 481.353C190.95 482.786 189.967 484.218 188.984 485.652L188.982 485.652Z" fill="#B2B3B3"/>
<path fill-rule="evenodd" clip-rule="evenodd" d="M156.72 160.494C187.247 155.952 196.815 143.596 192.913 110.429C195.732 112.543 198.551 114.657 201.37 116.771C203.056 118.936 204.742 121.1 206.428 123.264C207.435 126.158 208.441 129.052 209.448 131.946C209.775 135.62 210.102 139.294 210.429 142.969C210.178 146.266 209.926 149.563 209.674 152.86C208.114 155.829 206.554 158.799 204.993 161.769C202.678 165.091 200.363 168.413 198.047 171.735C194.7 175.762 191.353 179.788 188.006 183.815C187.376 184.192 186.747 184.57 186.118 184.947C183.613 180.596 180.401 179.034 175.863 177.063C175.863 177.063 174.04 176.629 174.114 174.975C174.189 173.321 174.718 168.791 174.718 168.791C170.766 167.709 166.815 166.626 162.864 165.544C160.498 163.983 158.132 162.424 155.767 160.863C156.085 160.741 156.403 160.617 156.719 160.494L156.72 160.494Z" fill="#B2B3B3"/>
<path fill-rule="evenodd" clip-rule="evenodd" d="M387.014 422.724C409.491 425.656 431.986 423.593 451.375 421.985C466.745 420.709 472.811 411.598 453.027 410.745C449.238 410.581 420.253 410.734 423.139 409.452C425.501 408.402 429.044 406.599 432.98 404.533C442.192 399.695 447.621 396.956 452.452 393.986C457.977 390.59 460.369 388.898 469.104 381.412C473.512 377.634 476.343 370.324 474.572 366.826C472.803 363.33 467.881 364.201 463.305 367.626C460.233 369.924 451.374 375.066 441.622 381.995C429.894 390.327 418.185 397.532 418.156 392.843C418.117 386.252 427.463 368.884 430.387 362.492C434.313 353.785 438.239 345.077 442.165 336.369C446.915 324.414 439.234 316.077 432.737 324.529C425.214 334.316 417.06 357.097 410.381 374.017C408.561 369.479 406.325 364.825 403.776 360.135C401.729 356.372 399.479 352.583 397.079 348.812C397.366 341.455 397.707 334.352 397.972 328.523C398.904 308.018 384.912 298.406 385.268 328.369C385.282 329.515 385.293 330.698 385.303 331.911C381.46 326.818 377.479 321.884 373.507 317.225C370.394 313.574 367.493 310.413 364.757 307.655C362.024 304.9 359.449 302.543 356.988 300.499C347.363 292.507 339.599 289.41 330.772 285.888C322.863 282.733 314.087 279.232 302.321 271.482C286.925 261.342 275.331 242.27 264.695 224.773C261.192 219.01 257.791 213.416 254.403 208.377C250.687 202.851 247.345 198.247 244.108 194.232C240.859 190.201 237.71 186.754 234.391 183.554L231.905 181.167C228.909 178.299 227.478 176.929 226.392 175.453C225.4 174.107 224.636 172.594 223.177 169.701C222.87 169.092 222.532 168.423 222.157 167.687C225.586 166.191 228.706 164.362 231.398 162.194C235.685 158.742 239.731 154.721 243.393 150.472C247.392 145.831 250.931 140.916 253.822 136.172L258.161 129.052L252.312 134.994C250.786 136.545 249.409 137.956 248.136 139.26C240.894 146.68 237.007 150.663 230.567 154.852C227.089 157.116 222.809 159.196 218.19 160.862C217.823 160.363 217.432 159.857 217.007 159.33C215.474 157.427 213.481 155.233 210.65 152.137C212.238 139.653 211.488 129.394 206.515 121.29C204.359 117.777 201.419 114.684 197.546 112.008C198.463 110.935 199.222 109.663 199.744 108.304C200.011 107.61 200.216 106.892 200.35 106.166C210.022 101.875 218.852 96.6621 225.634 89.5926C232.57 82.3624 237.352 73.2173 238.689 61.1822C239.395 54.8305 238.719 48.3226 236.771 41.7194C234.785 34.986 231.473 28.152 226.953 21.2829L226.126 20.0249L225.33 21.3012C213.768 39.8557 207.642 40.7868 187.31 43.8758L183.464 44.4617L185.33 48.1351C193.652 64.4464 198.826 74.598 189.802 95.2136C189.427 95.2715 189.056 95.3523 188.693 95.4566C186.916 95.9656 185.305 97.0217 184.236 98.5266C183.665 99.3327 183.298 100.299 183.051 101.497C182.843 102.517 182.721 103.706 182.632 105.119C180.745 104.537 178.749 103.997 176.637 103.498L176.2 105.377C191.175 108.914 200.107 114.535 204.869 122.294C209.63 130.052 210.288 140.035 208.691 152.267C206.343 157.757 204.485 161.334 202.383 164.531C200.269 164.738 198.189 164.812 196.185 164.736C189.005 164.464 182.331 162.603 176.198 159.587C169.367 156.227 163.195 151.429 157.731 145.794L156.349 147.138C161.954 152.918 168.303 157.849 175.353 161.316C181.719 164.447 188.651 166.379 196.117 166.662C197.699 166.722 199.321 166.692 200.968 166.581C199.97 167.963 198.892 169.336 197.669 170.835C192.705 170.989 187.651 170.684 182.712 169.934C173.934 168.599 165.544 165.853 158.717 161.758C151.957 157.703 146.732 152.327 144.204 145.695C141.577 138.801 141.857 130.502 146.347 120.859C146.744 120.006 147.163 119.163 147.603 118.331C148.045 117.495 148.523 116.641 149.036 115.775C149.444 115.086 149.285 114.558 148.638 114.173C147.695 113.616 142.924 114.45 138.066 115.486C134.2 110.05 127.914 105.312 120.814 101.215C113.24 96.8449 104.745 93.2012 97.2936 90.2205C96.2071 89.7861 95.2104 89.4105 94.2801 89.0607C91.2505 87.9209 88.941 87.0515 87.6449 85.7074C86.2231 84.233 84.8051 81.6484 83.0564 78.4611C77.1443 67.6824 67.5612 50.2107 39.7588 42.0318C38.9702 41.8002 37.7914 41.2714 36.6744 40.3319C35.8759 39.6606 35.1101 38.779 34.5447 37.649C34.4662 37.4913 34.1828 37.5614 34.2834 37.5111V37.5073C34.5523 37.3732 35.2526 37.3245 36.1342 37.265C38.0733 37.1332 43.1762 35.0127 44.3184 33.2876C44.7458 32.643 45.0095 31.9816 45.0117 31.3553C45.0156 30.5689 44.6628 29.9075 43.8231 29.4694C42.7746 28.9223 42.6169 28.6084 39.1965 29.25C38.0802 29.0008 41.538 28.7341 44.3374 23.6427C46.1547 20.3381 43.8726 18.754 38.7812 21.7965C37.4828 22.5722 36.2004 23.3394 35.1535 23.8942C35.4713 22.0799 36.6729 18.0705 37.5194 15.2459C37.8585 14.1144 38.1427 13.1665 38.3057 12.5493C38.4345 12.0609 38.5534 11.5725 38.6623 11.0887C38.766 10.6269 38.8604 10.1621 38.9443 9.69809C39.3481 7.46783 39.3527 5.52788 39.0243 4.3217C38.8719 3.76013 38.6357 3.30982 38.3217 2.99817C37.8844 2.56386 37.3518 2.39851 36.7323 2.54938C36.2705 2.66215 35.7897 2.96998 35.3067 3.50335C32.4722 6.62358 31.3643 9.91601 30.2396 13.2602C29.4541 15.5964 28.6586 17.9608 27.2383 20.2451C27.2566 17.9829 28.2151 11.6678 28.6951 8.50105C28.8666 7.37106 28.9824 6.60681 28.9748 6.38432C28.926 4.94879 28.7691 3.80357 28.5344 2.91817C28.286 1.9802 27.9385 1.29138 27.5248 0.825065C27.0028 0.237594 26.3849 -0.0214718 25.7113 0.00138698H25.7075C25.5284 0.00748266 25.3517 0.0341512 25.1795 0.0798688C21.4337 1.07346 20.5932 8.53534 19.8678 14.9838C19.6248 17.1432 19.3954 19.1807 19.0922 20.7396L16.1853 15.7869C14.0655 11.5039 12.4875 9.22034 11.3331 8.36161C9.96846 7.34134 8.98706 7.6568 8.31349 8.9186C7.89593 9.70037 7.69325 10.982 7.6483 12.5501C7.50124 17.7025 8.99011 26.5839 10.0317 29.9875C11.1442 33.6236 13.155 37.0905 15.5254 40.3289C17.87 43.5321 20.5635 46.5091 23.078 49.2004C29.3908 55.9551 35.8888 62.5743 42.386 69.1927C45.6221 72.4897 48.8589 75.7859 52.085 79.1126L52.1041 79.1317C58.7804 85.6578 64.969 92.6366 71.1561 99.6146C77.3722 106.625 83.5898 113.637 90.2965 120.194C95.3156 125.338 100.839 130.04 106.361 134.74C111.68 139.268 116.999 143.796 121.879 148.747L120.782 151.745C116.804 162.58 111.468 177.116 109.749 188.391C105.724 184.058 101.726 180.189 97.8125 176.979C95.1578 174.802 92.5245 173.081 88.989 171.419C85.4893 169.774 81.1157 168.192 74.9575 166.278L74.6741 167.199C73.7483 167.039 72.8179 166.926 71.8861 166.864C59.646 166.058 51.8092 171.32 46.97 179.799C42.223 188.116 40.4263 199.533 40.1939 211.285C39.7047 236.002 44.1622 258.139 52.1003 278.85C60.0307 299.541 71.4312 318.804 84.8424 337.796C86.2376 339.771 87.7287 341.844 89.306 344.005C90.8375 346.103 92.366 348.165 93.8907 350.197C102.796 362.284 102.143 370.494 101.26 381.581C100.925 385.788 100.558 390.404 100.652 395.847C101.025 417.426 110.917 430.635 122.744 436.248C128.18 438.827 134.028 439.799 139.556 439.241C145.108 438.68 150.34 436.576 154.516 433.008C162.264 426.388 166.369 414.767 162.112 398.671C161.165 395.09 159.986 391.563 158.73 388.32C157.31 384.656 155.792 381.363 154.399 378.774C153.412 376.941 152.383 375.074 151.35 373.199C147.824 366.8 144.23 360.279 142.869 356.19C141.995 353.562 141.307 350.834 140.715 347.821C140.116 344.781 139.62 341.493 139.129 337.755C138.826 335.444 138.451 333.165 138.071 330.849C137.665 328.376 137.251 325.86 136.916 323.261C141.592 331.764 146.838 338.789 153.339 344.369C160.766 350.745 169.81 355.219 181.483 357.834L178.04 376.111C177.2 380.574 176.592 385.109 175.985 389.636C174.668 399.47 173.353 409.27 169.652 418.112C166.97 422.868 164.114 428.367 161.557 434.247C158.973 440.188 156.687 446.523 155.178 452.883C154.028 457.734 153.324 462.618 153.282 467.381C153.238 472.158 153.862 476.8 155.368 481.145C156.44 484.24 158.186 487.424 161.182 490.04C164.164 492.643 168.367 494.671 174.348 495.458C180.282 496.24 185.449 495.533 189.846 494.016C195.502 492.063 199.872 488.773 202.966 485.578C210.125 478.186 213.707 470.985 215.326 463.676C216.936 456.405 216.59 449.078 215.897 441.355C215.768 439.91 215.629 438.504 215.482 437.009C214.584 427.897 213.358 415.448 215.002 408.156C216.376 402.061 221.338 394.097 225.241 387.832C225.912 386.756 226.552 385.729 227.201 384.663C235.602 370.876 243.214 357.972 249.623 344.267C255.828 330.998 260.893 317.004 264.435 300.779C280.106 315.264 295.314 330.123 310.503 344.964C330.702 364.7 350.868 384.405 372.009 403.121C371.36 402.941 370.687 402.735 369.992 402.506C364.477 400.683 341.605 383.782 341.605 383.782C336.098 381.641 333.067 381.794 331.57 383.12C327.404 386.809 331.317 392.8 336.683 398.219C351.704 413.387 365.474 419.913 387.018 422.724H387.014ZM148.599 425.373L149.106 434.385C146.131 435.989 142.816 436.976 139.364 437.324C134.176 437.849 128.68 436.933 123.564 434.505C116.009 430.92 109.285 424.033 105.582 413.604C107.105 415.691 108.74 417.514 110.476 419.101C113.688 422.036 117.236 424.155 121.053 425.64C132.985 430.286 141.384 429.963 147.901 425.835C148.137 425.687 148.369 425.531 148.599 425.373ZM182.418 483.182L182.166 493.715C179.812 493.937 177.287 493.905 174.592 493.55C169.034 492.818 165.163 490.965 162.444 488.592C159.741 486.231 158.158 483.338 157.182 480.521C155.753 476.394 155.16 471.967 155.202 467.397C155.212 466.281 155.26 465.156 155.344 464.023C155.811 465.863 156.406 467.662 157.144 469.373C158.548 472.63 160.468 475.578 162.998 477.908C164.793 479.561 166.892 480.754 169.316 481.596C171.701 482.424 174.388 482.908 177.402 483.154C179.117 483.294 180.789 483.299 182.417 483.183L182.418 483.182ZM35.4339 41.8055C36.7955 42.9492 38.2417 43.5969 39.2132 43.8826C66.2491 51.8367 75.5968 68.878 81.3633 79.3915C83.1775 82.6999 84.6496 85.382 86.2536 87.0454C87.8544 88.7049 90.3392 89.6406 93.5981 90.8674C94.5353 91.2202 95.5403 91.5981 96.5743 92.0118C103.971 94.9705 112.393 98.5814 119.853 102.886C126.441 106.687 132.286 111.029 136.005 115.937C133.93 116.398 131.938 116.865 130.329 117.242C128.826 117.595 127.658 117.868 127.175 117.968L127.514 119.863L139.684 117.978L139.191 117.195C142.388 116.497 145.356 115.91 146.796 115.796C146.484 116.344 146.184 116.891 145.896 117.437C145.42 118.338 144.986 119.208 144.595 120.047C139.863 130.21 139.592 139.019 142.4 146.386C145.092 153.448 150.607 159.144 157.728 163.415C164.781 167.645 173.416 170.478 182.425 171.848C186.918 172.531 191.511 172.85 196.051 172.799C195.522 173.436 194.965 174.1 194.379 174.801C193.869 175.41 193.345 176.037 192.011 177.64L192 177.652C191.318 178.496 190.8 179.153 190.329 179.75L189.848 180.358C187.252 178.044 183.41 176.44 179.027 175.594C174.264 174.675 168.83 174.646 163.665 175.571C162.443 175.79 161.659 176.267 161.151 176.881C160.633 177.507 160.435 178.234 160.367 178.963C160.321 179.464 160.335 179.932 160.402 180.37C159.197 181.915 158.051 182.907 156.995 183.449C156.048 183.937 155.187 184.048 154.442 183.87C153.698 183.692 153.033 183.215 152.483 182.53C151.797 181.676 151.294 180.506 151.031 179.17C150.882 178.414 150.809 177.616 150.823 176.804C150.836 176.013 150.929 175.199 151.109 174.386C151.544 172.431 151.717 170.779 151.675 169.357C151.63 167.879 151.355 166.643 150.896 165.574C149.7 162.784 147.373 161.234 144.639 159.413C142.507 157.993 140.107 156.394 137.905 153.91C136.38 152.188 135.062 151.186 133.935 150.695C132.362 150.01 131.116 150.248 130.155 150.957C129.352 151.548 128.801 152.464 128.444 153.416C127.969 154.686 127.834 156.085 127.924 156.783C128.44 160.802 131.218 164.275 134.855 167.059C139.233 170.409 144.893 172.783 149.251 173.874L149.23 173.97C149.021 174.91 148.913 175.854 148.897 176.774C148.881 177.738 148.964 178.67 149.136 179.54C149.459 181.177 150.097 182.638 150.981 183.738C151.791 184.747 152.812 185.458 153.996 185.742C155.18 186.025 156.493 185.875 157.879 185.162C158.95 184.61 160.073 183.714 161.218 182.408C163.311 185.395 168.724 186.29 172.898 186.68C173.85 186.768 174.579 186.823 175.218 186.87L176.291 186.953C186.436 187.801 187.145 186.903 191.846 180.942C192.375 180.271 192.955 179.536 193.501 178.858L195.858 176.038C196.857 174.845 197.769 173.756 198.614 172.729C206.348 172.401 213.849 170.98 220.369 168.427C220.773 169.221 221.131 169.931 221.455 170.571C222.964 173.561 223.753 175.126 224.836 176.595C226.021 178.204 227.49 179.611 230.569 182.558L233.055 184.944C236.313 188.085 239.408 191.474 242.605 195.441C242.88 195.781 243.154 196.125 243.43 196.473L242.531 196.821C243.385 199.015 243.771 200.85 243.741 202.369C243.713 203.787 243.315 204.925 242.595 205.819C241.328 207.392 238.777 208.245 235.609 208.579C231.646 208.996 226.789 208.581 222.199 207.722C218.88 207.101 215.656 206.314 213.056 205.407C210.852 204.638 209.123 203.799 208.216 202.926C206.162 200.95 204.24 199.556 202.432 198.635C200.577 197.69 198.831 197.235 197.177 197.155C191.463 196.875 187.18 201.025 183.278 204.808C182.023 206.025 180.808 207.202 179.617 208.15C177.604 209.754 174.64 211.002 171.547 211.811C168.101 212.713 164.522 213.066 161.919 212.766C159.486 212.485 156.359 211.073 152.934 208.973C148.904 206.502 144.502 203.094 140.328 199.437C130.386 190.725 125.914 184.363 119.439 175.149C118.467 173.766 117.45 172.319 116.224 170.597L116.221 170.598C118.264 164.201 120.6 157.838 122.592 152.411L123.147 150.899C123.575 149.73 123.9 148.811 123.901 148.807L124.086 148.251L123.678 147.833C118.657 142.685 113.13 137.981 107.604 133.277C102.133 128.619 96.6604 123.961 91.6665 118.842L91.6475 118.823C84.9704 112.297 78.7826 105.318 72.5955 98.3399C66.3794 91.3299 60.1633 84.3183 53.4566 77.7624C50.2441 74.4494 47.0005 71.1463 43.7576 67.8425C37.2855 61.25 30.8134 54.6575 24.4876 47.8875C22.0112 45.2374 19.3627 42.3107 17.0783 39.1897C14.8191 36.103 12.9096 32.8228 11.8718 29.4298C10.8668 26.145 9.42976 17.5737 9.57148 12.6042C9.60806 11.3172 9.74292 10.3259 10.0104 9.82533C10.021 9.80476 10.0729 9.82609 10.178 9.90458V9.90839C11.1061 10.6025 12.4867 12.6629 14.4625 16.6563C18.6723 24.9159 27.7656 39.4122 35.4354 41.804L35.4339 41.8055ZM149.592 171.97C149.723 171.024 149.771 170.175 149.748 169.409C149.712 168.194 149.49 167.189 149.121 166.327C148.153 164.07 146.048 162.668 143.574 161.02C141.346 159.537 138.838 157.866 136.462 155.185C135.139 153.692 134.052 152.847 133.164 152.46C132.337 152.1 131.73 152.19 131.294 152.511C130.83 152.853 130.487 153.448 130.248 154.086C129.883 155.059 129.773 156.064 129.834 156.541C130.275 159.974 132.76 163.027 136.025 165.526C140.145 168.679 145.467 170.923 149.594 171.971L149.592 171.97ZM209.946 154.222C212.352 156.857 214.104 158.804 215.503 160.541C215.774 160.876 216.03 161.202 216.274 161.524C215.414 161.807 214.545 162.075 213.669 162.326C210.767 163.161 207.798 163.813 204.866 164.233C206.524 161.537 208.093 158.461 209.946 154.222ZM203.492 166.354C207.049 165.948 210.675 165.196 214.198 164.184C215.293 163.869 216.378 163.529 217.449 163.167C218.077 164.108 218.636 165.059 219.182 166.115L219.489 166.709C213.699 168.955 207.097 170.28 200.247 170.715C201.438 169.219 202.497 167.814 203.492 166.354ZM176.45 185.027C184.166 185.673 185.798 185.204 188.629 181.859C186.305 179.751 182.757 178.277 178.665 177.488C174.117 176.611 168.932 176.582 164.004 177.465C163.294 177.592 162.875 177.824 162.638 178.11C162.411 178.385 162.319 178.751 162.284 179.135C161.9 183.247 168.4 184.325 173.071 184.761C173.788 184.828 174.622 184.89 175.353 184.943L176.45 185.027ZM221.28 165.975L220.896 165.232C220.393 164.259 219.881 163.373 219.321 162.505C223.894 160.819 228.134 158.735 231.615 156.471C237.098 152.904 240.741 149.525 245.995 144.201C244.705 145.894 243.349 147.572 241.934 149.214C238.346 153.378 234.383 157.316 230.189 160.693C227.599 162.779 224.59 164.537 221.279 165.974L221.28 165.975ZM115.498 172.907C116.286 174.02 117.088 175.161 117.86 176.261C124.409 185.58 128.932 192.014 139.06 200.889C143.312 204.615 147.806 208.093 151.93 210.621C155.58 212.859 158.97 214.369 161.7 214.684C164.52 215.01 168.36 214.638 172.03 213.677C175.366 212.804 178.587 211.438 180.817 209.661C182.072 208.662 183.325 207.446 184.621 206.19C188.236 202.686 192.203 198.841 197.086 199.08C198.468 199.147 199.951 199.54 201.555 200.357C203.206 201.198 204.975 202.483 206.879 204.316C207.998 205.393 209.968 206.371 212.42 207.227C215.12 208.169 218.44 208.981 221.843 209.618C226.595 210.507 231.648 210.935 235.804 210.497C239.461 210.112 242.471 209.046 244.096 207.028C245.083 205.802 245.628 204.277 245.665 202.407C245.686 201.305 245.529 200.083 245.179 198.731C247.592 201.901 250.098 205.43 252.801 209.45C256.191 214.492 259.569 220.048 263.048 225.772C273.792 243.447 285.504 262.714 301.263 273.092C313.191 280.95 322.065 284.49 330.061 287.678C338.137 290.9 345.307 293.761 353.833 300.431C350.4 299.986 346.659 299.774 342.832 299.861C338.184 299.965 333.407 300.51 328.898 301.61C317.914 304.289 312.344 309.637 309.756 316.79C307.381 323.356 307.584 331.375 308.401 340.223C294.024 326.18 279.603 312.15 264.797 298.495C264.689 292.637 264.546 287.682 264.307 283.332C264.06 278.835 263.711 274.944 263.197 271.323C261.698 260.758 258.844 247.954 253.45 237.145C249.378 228.983 243.854 221.947 236.366 217.823C230.665 214.683 225.866 213.861 221.769 214.674C218.267 215.369 215.315 217.246 212.775 219.885C203.547 226.668 194.589 235.928 186.23 244.571C183.982 246.895 181.779 249.172 179.431 251.536C177.897 253.082 176.417 254.674 175.04 256.399C173.656 258.132 172.368 260.008 171.222 262.116C170.896 262.717 170.654 263.185 170.436 263.607C169.698 265.035 169.273 265.858 168.861 265.921C165.414 266.454 153.129 247.229 147.665 238.678C146.648 237.085 145.861 235.854 145.392 235.163C138.06 224.361 130.114 213.061 122.037 202.849C118.518 198.398 114.972 194.154 111.44 190.245C112.083 185.061 113.622 179.018 115.498 172.907ZM27.2924 20.9553C27.3099 21.0124 27.3312 21.0505 27.3579 21.068C27.4943 21.1564 27.409 21.0787 27.2924 20.9553ZM208.408 225.788C203.066 235.032 201.211 247.506 199.561 258.612C199.114 261.623 198.681 264.533 198.188 267.294L191.925 302.38L181.837 355.939C170.519 353.394 161.763 349.064 154.589 342.907C147.217 336.58 141.487 328.301 136.343 318.032L131.099 297.651C127.213 282.551 123.359 267.573 119.742 252.549C116.137 237.57 112.767 222.541 109.839 207.286C107.851 196.934 102.592 186.982 95.6394 179.547C93.5036 177.263 91.2048 175.215 88.7909 173.463C91.8563 174.957 94.2138 176.522 96.5873 178.469C104.366 184.849 112.508 193.9 120.527 204.04C128.57 214.21 136.488 225.472 143.799 236.242C144.249 236.905 145.031 238.128 146.042 239.71C151.715 248.588 164.468 268.546 169.155 267.823C170.537 267.608 171.127 266.469 172.149 264.488C172.388 264.026 172.654 263.511 172.913 263.035C173.994 261.045 175.223 259.259 176.55 257.596C177.885 255.926 179.316 254.386 180.798 252.893C182.885 250.79 185.226 248.371 187.612 245.904C194.23 239.062 201.226 231.831 208.409 225.786L208.408 225.788ZM214.499 220.887L214.558 220.969L214.076 221.319C213.688 221.728 213.309 222.157 212.939 222.603C205.533 231.564 203.366 246.146 201.472 258.892C201.016 261.96 200.575 264.925 200.091 267.634C193.6 303.987 186.77 340.168 179.932 376.469C179.37 379.452 178.912 382.472 178.489 385.503C181.936 381.429 185.355 378.722 188.605 377.03C193.585 374.436 198.182 374.21 201.913 375.104C207.142 376.358 210.622 380.513 213.033 385.522C214.934 389.472 216.166 393.947 217.069 397.905C219.084 394.062 221.492 390.196 223.599 386.815C224.316 385.665 224.998 384.571 225.552 383.662C233.93 369.914 241.515 357.056 247.876 343.454C254.218 329.893 259.358 315.565 262.879 298.827C262.773 292.906 262.628 287.888 262.384 283.436C262.14 278.997 261.795 275.158 261.289 271.586C259.813 261.189 257.01 248.6 251.723 238.003C247.81 230.163 242.538 223.422 235.439 219.512C230.173 216.611 225.809 215.839 222.139 216.567C219.216 217.148 216.7 218.695 214.498 220.886L214.499 220.887ZM103.754 406.974C106.075 411.424 108.771 414.937 111.776 417.684C114.799 420.446 118.145 422.442 121.749 423.845C133.039 428.241 140.889 427.997 146.876 424.206C152.866 420.413 157.121 413.021 161.14 403.141C160.902 401.85 160.606 400.525 160.246 399.165C159.316 395.647 158.16 392.189 156.931 389.018C156.842 388.787 156.752 388.557 156.662 388.329C154.058 387.015 151.555 385.896 149.131 384.971C151.639 393.739 150.145 399.924 146.518 403.694C144.64 405.645 142.204 406.934 139.464 407.587C136.771 408.23 133.773 408.256 130.721 407.696C122.064 406.107 112.924 399.748 109.069 389.248C106.953 390.538 104.791 391.993 102.564 393.611C102.56 394.334 102.564 395.07 102.577 395.82C102.646 399.841 103.056 403.556 103.754 406.974ZM110.757 388.247C114.282 398.25 122.907 404.303 131.068 405.802C133.851 406.313 136.577 406.29 139.018 405.708C141.41 405.138 143.522 404.029 145.129 402.358C148.478 398.877 149.703 392.891 146.866 384.156C140.501 382.005 134.653 381.245 128.913 381.86C122.933 382.501 117.035 384.636 110.757 388.247ZM102.605 391.209C111.906 384.625 120.196 380.854 128.709 379.942C137.104 379.043 145.658 380.927 155.548 385.636C154.589 383.412 153.617 381.396 152.699 379.691C151.744 377.918 150.703 376.029 149.657 374.131C147.706 370.591 145.735 367.014 144.117 363.799C140.977 362.377 137.988 361.237 134.93 360.475C131.868 359.711 128.721 359.319 125.265 359.391C121.235 359.475 117.582 360.276 114.103 362.002C110.607 363.736 107.27 366.413 103.891 370.241L103.616 369.998C103.821 373.745 103.519 377.542 103.184 381.736C102.951 384.663 102.704 387.788 102.605 391.209ZM103.443 367.869C106.66 364.425 109.875 361.947 113.25 360.273C116.99 358.418 120.911 357.556 125.227 357.466C128.871 357.391 132.178 357.802 135.39 358.602C137.89 359.226 140.328 360.082 142.818 361.127C142.073 359.525 141.461 358.061 141.04 356.798C140.526 355.254 140.077 353.691 139.675 352.073C137.824 349.953 134.231 346.671 129.443 344.755C126.194 343.456 122.391 342.789 118.21 343.558C115.673 344.024 113.329 345.59 111.199 347.786C109.003 350.049 107.041 352.972 105.324 356.064C104.954 356.729 102.578 361.963 102.572 361.979L102.199 361.814C102.832 363.872 103.222 365.873 103.443 367.869ZM101.482 359.732C102.235 358.087 103.386 355.585 103.641 355.127C105.434 351.901 107.492 348.838 109.818 346.442C112.209 343.977 114.889 342.209 117.863 341.663C122.45 340.819 126.612 341.546 130.16 342.966C133.771 344.41 136.746 346.576 138.883 348.525L138.817 348.194C138.22 345.16 137.718 341.825 137.216 338.008C137.101 337.129 136.973 336.242 136.837 335.348C133.9 331.055 129.667 327.429 124.877 325.425C120.571 323.625 115.818 323.14 111.163 324.675C99.9894 328.359 96.889 336.781 93.4884 346.444C94.1307 347.309 94.7807 348.179 95.4382 349.054L95.4459 349.062C98.3032 352.94 100.221 356.428 101.482 359.732ZM92.1054 344.574C95.5205 334.95 98.9852 326.656 110.559 322.839C115.689 321.148 120.907 321.673 125.616 323.643C129.643 325.328 133.299 328.075 136.205 331.395L136.167 331.162C135.502 327.116 134.818 322.953 134.48 318.514L129.235 298.128C125.344 283.005 121.484 268.008 117.871 252.996C114.246 237.939 110.866 222.869 107.945 207.65C106.025 197.651 100.948 188.04 94.2366 180.863C87.7843 173.963 79.8356 169.327 71.7657 168.794C60.3919 168.045 53.1228 172.912 48.6463 180.756C44.0776 188.761 42.3464 199.863 42.1194 211.328C41.6355 235.766 46.048 257.667 53.9053 278.168C61.7711 298.691 73.0945 317.819 86.4212 336.691C87.9474 338.852 89.4264 340.911 90.8619 342.878C91.2734 343.441 91.6879 344.007 92.1062 344.575L92.1054 344.574ZM409.338 376.643C408.363 379.076 407.423 381.355 406.525 383.416C403.21 391.032 400.476 395.69 398.678 394.203C396.035 392.016 396.242 371.787 396.95 352.232C398.77 355.177 400.49 358.125 402.085 361.059C404.962 366.35 407.43 371.585 409.338 376.643ZM385.326 335.16C385.388 346.452 385.316 359.851 385.15 371.71C384.938 386.878 384.377 399.527 382.938 402.019C381.895 403.825 379.433 404.434 375.852 403.947C353.815 384.595 332.847 364.107 311.844 343.585L310.181 341.96L310.502 341.928C309.569 332.571 309.157 324.118 311.57 317.446C313.939 310.895 319.108 305.981 329.352 303.482C333.725 302.415 338.36 301.887 342.87 301.785C347.824 301.673 352.628 302.073 356.775 302.838C358.872 304.633 361.067 306.673 363.39 309.014C366.089 311.734 368.957 314.861 372.042 318.479C376.531 323.744 381.031 329.361 385.324 335.159L385.326 335.16ZM191.93 95.1458C192.699 95.2128 193.462 95.3827 194.19 95.6624C195.893 96.3169 197.209 97.2 198.187 98.2294C199.548 99.6611 200.259 101.364 200.465 103.133C200.498 103.414 200.518 103.696 200.525 103.978C209.614 99.8631 217.881 94.8928 224.244 88.2599C230.897 81.3246 235.485 72.543 236.77 60.9742C237.446 54.88 236.795 48.6228 234.92 42.2658C233.108 36.1228 230.157 29.8839 226.16 23.6038C214.639 41.6775 208.128 42.6704 187.596 45.7898L186.393 45.9735L187.05 47.2635C195.513 63.8528 200.82 74.2589 191.93 95.1458ZM184.304 105.66C188.817 107.165 192.664 108.926 195.918 110.946C196.77 110 197.474 108.853 197.947 107.621C198.474 106.248 198.713 104.769 198.548 103.353C198.388 101.98 197.839 100.661 196.79 99.5583C195.997 98.7239 194.917 98.0023 193.502 97.4591C192.147 96.9387 190.618 96.9166 189.22 97.3174C187.843 97.712 186.607 98.5129 185.806 99.6436V99.6474C185.4 100.22 185.13 100.95 184.938 101.886C184.732 102.896 184.616 104.142 184.53 105.671L184.305 105.659L184.304 105.66ZM215.698 400.657C214.779 396.305 213.496 390.93 211.296 386.361C209.111 381.82 206.018 378.067 201.468 376.977C198.137 376.179 194.009 376.393 189.495 378.744C185.835 380.651 181.924 383.955 177.979 389.245L177.891 389.897C177.205 395.017 176.52 400.129 175.501 405.119C177.76 402.751 179.997 400.624 182.567 399.259C191.111 394.72 198.009 395.871 203.329 399.018C207.57 401.527 210.764 405.301 212.974 408.43C213.019 408.195 213.067 407.964 213.118 407.737C213.616 405.531 214.539 403.125 215.698 400.657ZM174.674 408.819C173.952 411.763 173.082 414.653 171.991 417.465C172.454 417.179 172.92 416.906 173.389 416.648C181.095 412.404 189.51 411.957 196.745 413.518C203.407 414.955 209.099 418.11 212.345 421.583C212.206 417.912 212.23 414.35 212.558 411.256C210.481 408.066 207.09 403.483 202.347 400.677C197.545 397.837 191.285 396.814 183.472 400.964C180.56 402.511 177.993 405.262 175.267 408.182L174.674 408.819ZM170.212 421.059C167.899 425.271 165.503 429.999 163.32 435.02C162.518 436.863 161.746 438.744 161.018 440.653C167.866 437.461 176.16 435.476 184.406 435.149C192.84 434.815 201.242 436.216 208.028 439.835C209.551 440.646 212.393 443.123 214.246 444.804C214.167 443.718 214.075 442.625 213.976 441.524C213.87 440.328 213.72 438.815 213.561 437.201C213.196 433.492 212.777 429.238 212.516 424.982C212.273 424.563 211.982 424.142 211.648 423.722C208.851 420.202 203.162 416.874 196.346 415.404C189.508 413.93 181.569 414.345 174.319 418.338C172.921 419.107 171.547 420.01 170.212 421.059ZM160.052 443.277C158.881 446.581 157.856 449.95 157.055 453.331C156.716 454.759 156.418 456.187 156.164 457.611C156.563 461.379 157.442 465.183 158.92 468.611C160.223 471.634 161.992 474.357 164.306 476.489C165.904 477.961 167.777 479.024 169.945 479.777C172.152 480.543 174.684 480.995 177.555 481.229C185.285 481.862 192.1 479.565 198.085 475.889C204.049 472.226 209.213 467.18 213.648 462.278C214.59 457.478 214.682 452.607 214.421 447.58C213.443 446.661 210.125 443.583 208.031 442.109C205.421 448.366 202.706 453.556 198.652 457.365C194.334 461.423 188.565 463.863 179.912 464.274C179.53 464.292 179.188 464.301 178.893 464.301C175.089 464.301 171.633 463.248 169.038 460.715C166.473 458.212 164.795 454.295 164.523 448.565C164.495 447.979 164.481 447.414 164.481 446.874C164.481 446.269 164.764 443.15 164.959 441.069C163.245 441.733 161.603 442.471 160.052 443.277ZM166.964 440.337C166.786 442.215 166.414 446.199 166.414 446.875C166.414 447.466 166.425 447.999 166.448 448.476C166.695 453.669 168.157 457.161 170.383 459.333C172.579 461.477 175.569 462.368 178.894 462.368C179.242 462.368 179.551 462.362 179.821 462.349C187.96 461.962 193.344 459.708 197.331 455.961C201.185 452.339 203.799 447.273 206.347 441.133C200.019 437.983 192.277 436.765 184.482 437.074C178.459 437.312 172.413 438.463 166.964 440.337Z" fill="black"/>
<path d="M9.82283 565.916C10.3943 564.2 22.434 489.273 22.4691 489.057L24.3717 489.359C24.3366 489.575 12.2855 564.611 11.65 566.519L9.82283 565.916ZM136.771 526.906L153.079 544.421L151.667 545.735L135.359 528.219L136.771 526.906ZM92.6197 516.279L140.637 559.767L139.346 561.193L91.3289 517.706L92.6197 516.279ZM144.45 589.857L53.2469 500.164L54.5986 498.789L145.801 588.483L144.45 589.857ZM354.315 673.696C354.703 675.679 354.78 677.985 354.427 680.103C354.162 681.689 353.653 683.185 352.848 684.39C351.997 685.664 350.828 686.605 349.286 686.989C348.431 687.203 347.47 687.241 346.398 687.062L346.356 687.055L12.3693 589.826L10.5802 589.313C1.16773 586.617 -0.495624 586.141 0.110896 574.626L2.03561 574.724C1.50985 584.707 2.95224 585.121 11.1083 587.456L346.757 685.167C347.538 685.292 348.222 685.267 348.818 685.118C349.855 684.859 350.654 684.207 351.248 683.318C351.888 682.361 352.301 681.123 352.524 679.786C352.849 677.838 352.764 675.706 352.388 673.899L7.75792 577.415L8.2791 575.558L353.158 672.112C354.699 671.392 354.254 668.603 353.365 665.638C352.922 664.159 352.357 662.63 351.845 661.246C351.598 660.578 351.364 659.946 351.102 659.186C345.426 642.768 340.177 627.882 334.927 612.996C329.861 598.627 324.794 584.259 318.931 567.305L39.1491 483.793L39.7008 481.944L320.425 565.737L320.587 566.208C326.257 582.609 331.503 597.484 336.747 612.355C341.865 626.87 346.984 641.385 352.922 658.56C353.09 659.048 353.366 659.794 353.657 660.582C354.178 661.993 354.754 663.55 355.215 665.088C356.323 668.786 356.735 672.325 354.315 673.698V673.696ZM27.319 482.546L315.908 569.364C326.512 601.503 337.124 633.64 347.737 665.776L11.0831 572.582L11.5967 570.725L344.771 662.956L314.389 570.923L26.7681 484.396L27.3197 482.547L27.319 482.546ZM2.54002 566.047L17.0355 486.622L18.9305 486.962L4.43502 566.387L2.54002 566.047Z" fill="#2B2A29"/>
</svg>
