<svg width="519" height="641" viewBox="0 0 519 641" fill="none" xmlns="http://www.w3.org/2000/svg">
<path d="M351.593 433.225C347.566 422.972 343.643 412.733 339.912 402.348C335.979 391.417 332.3 380.424 328.988 369.253C328.09 366.237 327.328 363.575 326.589 361.002C322.609 347.159 319.326 335.743 312.42 324.665C307.306 316.462 298.217 307.184 290.088 298.892C287.373 296.121 284.767 293.459 282.457 290.995C278.393 293.629 272.818 297.181 267.126 299.829C260.986 302.689 254.692 304.499 249.879 303.052L248.854 302.741L249.263 301.804L248.656 302.496C247.626 301.592 246.817 301.069 246.186 300.824C245.8 300.678 245.532 300.649 245.354 300.706C245.241 300.739 245.147 300.838 245.076 300.974C244.968 301.182 244.902 301.446 244.869 301.738C244.629 303.933 246.882 304.8 249.103 305.648C250.415 306.153 251.714 306.647 252.707 307.42C255.553 309.639 255.647 311.387 254.551 312.801C253.586 314.05 251.596 314.794 250.025 315.383L249.917 315.425C249.776 315.482 249.62 315.52 249.428 315.562C249.108 315.637 248.637 315.751 248.289 315.93C247.908 316.127 247.645 316.523 248.087 317.376H248.092C248.219 317.621 248.835 317.984 249.489 318.361C250.679 319.058 251.944 319.798 252.198 321.061C252.829 324.208 253.238 327.276 253.012 330.117C252.777 333.052 251.864 335.728 249.832 337.971C243.382 345.086 219.573 347.093 209.661 347.932L209.53 347.941L208.462 351.051C210.56 354.872 212.554 358.75 214.432 362.656C221.573 377.531 227.039 392.868 230.191 407.437C232.83 419.626 233.268 432.353 230.817 443.977C228.596 454.475 224.024 464.077 216.572 471.583C204.439 483.81 195.877 484.338 181.317 485.233L180.353 485.294C181.247 488.169 182.192 491.019 183.204 493.837L183.265 493.87L183.237 493.922C184.493 497.423 185.848 500.872 187.311 504.259L189.456 509.188C194.014 519.639 197.336 527.258 199.359 535.376C200.704 540.776 204.039 556.146 199.17 560.942C197.105 562.982 193.972 563.557 190.044 562.667C188.623 562.342 187.09 561.828 185.462 561.116C185.156 572.943 185.462 584.468 185.772 595.993C186.111 608.814 186.454 621.635 185.956 634.879L185.942 635.223L185.721 635.473C184.239 637.165 183.331 638.159 181.985 638.441C180.767 638.696 179.445 638.272 177.29 637.132C174.322 638.889 171.885 640.062 169.782 640.618C167.42 641.245 165.463 641.104 163.657 640.152C159.71 638.069 157.663 634.149 156.652 629.546C155.673 625.098 155.664 620.028 155.81 615.424C156.007 609.238 155.532 603.904 154.535 598.985C153.542 594.075 152.028 589.561 150.155 585.015C144.176 570.502 139.086 561.248 132.316 553.554C126.073 546.449 118.363 540.639 107.185 533.227C106.324 532.728 105.468 532.196 104.602 531.63C101.615 529.675 98.5055 527.281 94.7279 524.327C90.922 521.354 87.1115 518.159 83.9125 514.682C80.6664 511.157 78.0367 507.332 76.6347 503.129L76.5924 503.001C70.2744 496.82 60.0282 488.64 49.0904 479.909C27.3185 462.532 2.82731 442.987 0.437474 431.924C-0.385797 428.103 -0.0188536 423.905 1.64651 418.906C3.27423 414.01 6.16274 408.332 10.4061 401.444C16.1173 392.171 23.3903 384.458 32.8461 374.426C34.6385 372.527 36.5109 370.539 38.4961 368.409L39.1971 369.06C26.3588 346.41 15.9103 325.664 14.0003 313.951C12.5607 305.121 14.2402 294.067 19.3633 284.134C23.7337 275.672 30.6115 268.011 40.1897 263.219C54.2982 256.161 71.6857 254.337 90.1693 257.414C108.211 260.415 127.306 268.086 145.418 280.111C148.269 271.483 151.51 263.77 154.968 256.132L154.925 256.095L155.034 255.986C156.596 252.542 158.204 249.112 159.842 245.616C161.62 241.818 163.436 237.935 165.35 233.695C167.9 228.05 170.601 222.453 173.705 217.109C176.82 211.743 180.343 206.635 184.521 201.999C186.779 199.492 189.282 197.155 192.297 194.804C195.209 192.533 198.582 190.257 202.666 187.816C204.463 173.62 200.469 169.855 191.982 161.85C190.114 160.092 188.04 158.132 185.749 155.814L185.73 155.795C182.362 152.158 178.956 148.421 175.653 144.548C172.346 140.661 169.161 136.651 166.268 132.481C163.158 127.996 160.368 123.312 158.101 118.383C155.833 113.446 154.098 108.267 153.086 102.797C152.592 100.116 152.371 97.9061 152.366 95.7104C148.805 105.907 143.033 115.048 135.628 122.544C122.794 135.534 105.059 143.573 85.4743 143.573C65.8899 143.573 48.1543 135.534 35.3206 122.544C22.4823 109.549 14.546 91.6064 14.546 71.784C14.546 51.9662 22.487 34.0238 35.3206 21.0287C48.1543 8.0383 65.8899 0 85.4743 0C95.57 0 105.172 2.13444 113.865 5.98396L116.707 6.19128C123.933 6.719 128.223 7.02998 132.65 8.59429C136.479 9.94657 139.871 11.902 142.925 14.2814C145.959 16.642 148.669 19.4267 151.153 22.4516C155.274 27.4744 158.313 31.4935 160.561 35.1028C162.834 38.7638 164.301 42.0149 165.261 45.464C166.969 51.5987 167.03 58.2517 167.129 68.9098V68.9616C167.1 71.5625 167.115 73.8666 167.19 75.9445C167.26 77.9847 167.392 79.8081 167.594 81.4855C168.385 88.0349 173.658 97.3595 181.082 107.641C188.571 118.011 198.234 129.315 207.718 139.756C208.212 140.298 208.706 140.807 209.2 141.311C210.179 142.305 211.148 143.295 211.971 144.402C216.426 150.367 221.648 156.323 227.086 161.831C232.863 167.673 238.89 173.017 244.526 177.342C246.694 179.005 248.294 181.451 249.851 183.83C250.354 184.603 250.853 185.366 251.347 186.063C252.283 187.387 253.233 189.348 254.203 191.35C255.901 194.856 257.67 198.507 258.855 198.267C260.285 197.984 262.449 195.068 263.894 193.117L264.303 192.566L264.482 192.698L264.449 192.594C264.256 191.986 264.091 191.36 263.959 190.723C263.828 190.073 263.724 189.414 263.654 188.744C262.656 179.42 265.206 176.018 269.976 169.657L270.804 168.555C271.816 166.896 272.47 165.958 273.307 165.171C274.239 164.3 275.283 163.725 277.188 162.679C277.743 162.377 278.369 162.029 279.169 161.581L280.096 163.244C279.381 163.65 278.698 164.022 278.106 164.347C276.318 165.332 275.344 165.864 274.601 166.561C273.702 167.405 272.959 168.639 271.341 171.344C271.049 179.302 273.218 183.938 277.024 186.181C280.938 188.495 286.654 188.396 293.263 186.836L294.049 186.652L294.359 187.402C295.253 189.569 296.585 192.594 298.433 194.71C300.127 196.641 302.291 197.801 305.015 196.637C307.532 195.567 308.035 191.204 308.364 188.32C308.44 187.665 308.506 187.077 308.59 186.591C308.872 184.937 309.903 184.565 311.982 183.807C312.848 183.496 313.934 183.1 315.308 182.459H315.313C317.199 181.578 318.822 180.419 319.942 179.034C320.779 178.006 321.334 176.847 321.508 175.584C321.683 174.317 321.471 172.927 320.779 171.433C319.867 169.473 318.135 167.344 315.36 165.091L312.575 162.83L316.113 163.414C320.045 164.064 323.489 165.775 326.378 168.338C329.351 170.976 331.731 174.515 333.439 178.718C335.942 184.886 334.234 188.768 332.263 193.24C332.107 193.588 331.957 193.942 331.802 194.295C332.178 196.1 332.696 197.678 333.345 199.044C334.728 201.956 336.704 203.898 339.131 204.991C341.596 206.103 344.555 206.362 347.858 205.895C351.264 205.419 355.027 204.166 358.993 202.281L359.802 204.001C355.672 205.971 351.725 207.276 348.121 207.785C344.466 208.298 341.159 207.992 338.35 206.729C335.514 205.448 333.213 203.205 331.623 199.86C331.247 199.063 330.913 198.206 330.616 197.282C329.845 199.516 329.261 202.036 329.252 205.113C331.764 208.737 334.831 211.356 338.341 213.26C341.959 215.229 346.061 216.445 350.497 217.232C355.681 218.155 360.334 217.835 365.452 217.486C369.602 217.204 374.057 216.902 379.382 217.199C388.24 217.698 394.921 220.474 400.157 222.65C401.526 223.221 402.796 223.748 403.939 224.168L403.295 225.958C402.067 225.506 400.797 224.978 399.428 224.413C394.319 222.288 387.808 219.583 379.279 219.102C374.08 218.81 369.682 219.107 365.579 219.39C360.334 219.748 355.568 220.073 350.172 219.112C345.539 218.287 341.248 217.01 337.428 214.937C334.507 213.349 331.868 211.295 329.567 208.633C330.127 211.111 331.463 213.217 333.547 215.097C336.257 217.548 340.218 219.621 345.336 221.604C346.301 221.981 347.896 222.589 349.561 223.225C362.23 228.055 379.222 234.538 387.45 243.387C389.111 245.168 389.967 246.949 389.638 249.164C389.327 251.232 387.935 253.612 385.117 256.684L384.858 256.966C369.004 274.24 350.671 294.218 325.94 294.628L326.886 295.961C332.851 305.352 336.859 311.133 341.3 316.405C345.746 321.673 350.638 326.442 358.372 333.801C373.713 348.389 384.166 360.173 393.331 372.984C402.311 385.541 410.06 399.092 419.981 417.256C423.458 408.907 427.028 400.6 430.717 392.345C432.57 388.204 434.344 384.514 436.244 381.513C438.192 378.427 440.276 376.057 442.713 374.643C443.296 374.304 443.898 374.021 444.505 373.795C446.585 373.027 448.782 372.919 450.767 373.508C452.776 374.111 454.549 375.421 455.753 377.498C456.04 378.003 456.294 378.544 456.511 379.124C460.204 389.16 446.185 419.914 438.568 436.631L437.289 439.435C432.34 450.338 431.149 454.691 432.236 455.186C433.756 455.874 439.857 450.489 446.693 444.457L446.839 444.33C452.611 439.237 458.995 433.701 459.014 433.686C466.766 427.019 475.248 420.592 483.208 414.09L483.269 414.057C489.362 410.41 494.301 408.243 498.093 407.286C502.595 406.155 505.639 406.707 507.22 408.516C507.253 408.549 507.295 408.601 507.323 408.634C509.177 410.914 508.692 414.933 505.902 419.909C503.263 424.607 498.54 430.284 491.775 436.221C490.834 437.051 489.856 437.88 488.839 438.709C476.298 449.414 464.311 459.681 451.444 469.896C449.497 471.71 447.676 473.586 446.443 475.126C445.512 476.29 444.947 477.134 445.009 477.383C445.018 477.426 445.771 477.129 447.14 476.79C451.496 475.72 459.907 472.266 469.42 468.36C486.134 461.491 506.227 453.236 514.483 453.81C517.489 454.022 519.159 455.28 518.971 457.952C518.341 467.041 499.918 474.952 483.128 482.156C469.89 487.844 457.706 493.074 456.854 497.456C456.751 497.993 457.358 498.29 458.411 498.492C459.578 498.718 461.178 498.803 462.989 498.902C463.892 498.949 464.847 499.001 465.755 499.062H479.675C480.31 499.062 481.058 499.043 481.99 499.015C489.056 498.803 505.493 498.308 505.757 504.118C506.1 511.845 473.743 513.278 460.848 513.853C458.651 513.952 457.033 514.022 456.299 514.088C451.35 514.55 446.279 515.28 441.222 516.006C427.235 518.013 413.334 520.011 400.566 516.552C392.418 514.343 385.413 509.786 379.067 504.029C372.772 498.318 367.132 491.434 361.661 484.498C359.807 482.147 357.37 479.508 354.745 476.663C344.278 465.321 330.917 450.847 338.289 437.541C339.578 435.208 341.554 433.55 344.33 432.9C346.329 432.428 348.738 432.494 351.593 433.225ZM249.677 300.866C251.959 295.777 254.203 292.041 256.734 288.733C259.415 285.228 262.388 282.231 266.072 278.626H266.076C272.183 272.647 277.461 268.209 282.97 264.698C288.488 261.183 294.232 258.601 301.265 256.326C302.15 256.043 302.964 255.746 303.721 255.468C306.675 254.384 308.83 253.597 311.752 254.573C311.54 254.285 311.286 253.932 311.004 253.513C309.893 251.878 308.247 249.71 306.257 247.265C304.149 244.683 301.656 241.794 299.003 238.916C295.385 237.62 292.129 236.663 289.048 236.235C285.91 235.796 282.937 235.909 279.912 236.767C278.148 237.266 275.923 238.633 273.519 240.452C271.058 242.313 268.429 244.626 265.916 246.963C254.381 257.687 244.046 263.181 233.809 264.665C223.553 266.154 213.462 263.624 202.402 258.305C199.5 256.905 196.898 255.553 194.457 254.29C180.169 246.869 171.598 242.416 156.614 257.103C153.98 262.931 151.472 268.807 149.172 275.097C158.157 274.89 168.709 276.431 179.562 279.225C191.098 282.193 202.967 286.575 213.651 291.786C219.95 294.858 227.03 298.783 233.569 303.321C238.518 306.751 243.152 310.535 246.901 314.558C247.061 314.441 247.235 314.337 247.409 314.247C247.988 313.941 248.585 313.805 248.999 313.706C249.136 313.673 249.23 313.654 249.362 313.602C250.707 313.098 252.405 312.462 253.05 311.632C253.473 311.086 253.243 310.257 251.535 308.928C250.768 308.329 249.602 307.882 248.426 307.434C245.528 306.322 242.578 305.191 242.978 301.535C243.034 301.012 243.166 300.508 243.392 300.084C243.693 299.518 244.14 299.085 244.78 298.882C245.349 298.703 246.045 298.732 246.868 299.047C247.64 299.349 248.571 299.924 249.677 300.866ZM314.085 256.613L314.226 278.118L324.595 292.729C349.17 293.035 367.583 272.977 383.456 255.675L383.72 255.393C386.26 252.622 387.502 250.568 387.751 248.886C387.982 247.345 387.323 246.04 386.058 244.683C378.135 236.164 361.378 229.77 348.883 225.006C347.594 224.516 346.362 224.045 344.649 223.381C339.319 221.312 335.165 219.126 332.272 216.516C329.28 213.811 327.624 210.668 327.398 206.762C327.13 202.164 328.019 198.71 329.153 195.732C329.986 193.546 330.607 192.377 331.392 190.445C332.733 187.147 333.505 183.938 331.675 179.434C330.075 175.495 327.864 172.201 325.117 169.761C323.433 168.267 321.537 167.089 319.453 166.283C320.859 167.782 321.857 169.238 322.506 170.632C323.362 172.479 323.616 174.227 323.39 175.844C323.169 177.469 322.468 178.939 321.419 180.235C320.107 181.851 318.248 183.189 316.113 184.188C314.711 184.838 313.549 185.262 312.631 185.597C311.248 186.101 310.561 186.351 310.467 186.912C310.392 187.35 310.326 187.911 310.256 188.537C309.874 191.859 309.296 196.882 305.758 198.389C303.246 199.464 301.115 199.11 299.313 197.984C296.82 200.138 294.341 201.674 291.828 202.673C289.09 203.77 286.324 204.227 283.478 204.171C278.327 204.067 274.243 202.983 271.143 201.118C268.415 199.478 266.453 197.24 265.206 194.545C263.583 196.722 261.278 199.732 259.227 200.142C256.602 200.665 254.504 196.335 252.49 192.179C251.559 190.252 250.646 188.368 249.79 187.157C249.258 186.407 248.76 185.644 248.256 184.871L248.124 184.669C246.045 186.257 243.843 187.911 241.646 189.564C229.105 199.007 216.563 208.444 206.302 221.063C212.959 220.624 228.281 219.654 243.331 219.135C258.634 218.612 273.599 218.565 278.769 220.045C286.268 222.189 299.755 236.286 307.729 246.063C309.762 248.561 311.441 250.775 312.575 252.438C313.897 254.384 314.508 255.826 314.179 256.457C314.151 256.514 314.118 256.566 314.085 256.613ZM206.603 351.612L206.293 351.504L206.392 351.221C200.601 340.756 194.024 330.72 186.906 321.579C178.057 310.224 167.42 301.064 153.26 288.879C151.585 287.437 149.859 285.948 148.038 284.379C145.244 281.958 145.258 282.561 141.443 281.378C131.606 278.325 120.851 275.898 110.092 275.144C100.241 274.456 90.3998 275.163 81.2874 278.08C77.9567 279.145 74.7342 280.535 71.6245 282.254C68.5196 283.974 65.5418 286.01 62.6862 288.37C57.3608 292.766 54.6134 298.209 52.0824 303.222C46.6253 314.045 42.1091 322.983 16.6677 317.277C22.1483 338.047 47.2134 379.59 68.0116 414.062C74.6213 425.017 80.7981 435.26 85.8224 443.967C87.6572 447.148 89.8306 451.596 92.1122 456.27C94.8173 461.811 97.687 467.677 100.331 472.12C102.829 472.295 105.43 472.808 108.173 473.548C117.163 475.96 125.151 479.179 132.74 483.005C136.395 484.842 139.951 486.821 143.489 488.918L145.046 488.795C157.433 487.801 169.504 486.835 180.706 492.461C173.555 471.838 169.613 449.645 165.788 428.117C161.855 405.967 158.044 384.519 151.016 366.327C146.942 355.782 141.024 346.212 132.495 337.199C123.947 328.166 112.765 319.685 98.1809 311.336L99.1265 309.682C113.87 318.116 125.194 326.715 133.873 335.889C142.581 345.086 148.622 354.863 152.785 365.639C159.893 384.029 163.718 405.557 167.665 427.787C170.958 446.337 174.341 465.378 179.779 483.419L181.204 483.334C195.308 482.463 203.602 481.954 215.227 470.24C222.396 463.012 226.809 453.74 228.954 443.591C231.353 432.24 230.916 419.787 228.328 407.838C225.205 393.401 219.79 378.21 212.719 363.476C210.8 359.481 208.758 355.518 206.603 351.612ZM207.22 348.808L207.897 346.825C209.167 336.317 210.475 328.934 213.044 321.984C215.565 315.152 219.291 308.772 225.365 300.291C221.102 297.733 216.803 295.447 212.813 293.501C202.224 288.337 190.481 283.998 179.092 281.067C168.253 278.273 157.739 276.756 148.847 277.01L148.447 277.114C147.803 277.279 147.869 279.635 147.107 281.053C149.6 283.216 152.103 285.369 154.497 287.433C168.733 299.688 179.435 308.895 188.402 320.41C195.242 329.193 201.584 338.796 207.22 348.808ZM140.168 278.999C123.552 268.67 106.254 262.022 89.8635 259.294C71.7704 256.283 54.7828 258.05 41.0365 264.925C31.8488 269.523 25.2532 276.878 21.0569 285.011C16.1173 294.571 14.4942 305.187 15.8773 313.644C15.9573 314.148 16.0608 314.672 16.1737 315.209C40.98 320.999 45.2328 312.579 50.3889 302.364C53.0045 297.181 55.8413 291.556 61.4771 286.9C64.4315 284.46 67.5129 282.353 70.7072 280.586C73.9109 278.815 77.251 277.373 80.7135 276.266C90.0799 273.274 100.157 272.539 110.219 273.246C120.466 273.962 130.702 276.172 140.168 278.999ZM93.5847 474.599C91.4442 475.192 89.3837 476.229 87.3608 477.822C87.5207 477.779 87.6807 477.732 87.8453 477.69C94.9584 475.824 100.947 475.659 107.825 478.203C111.08 479.405 114.185 480.63 117.177 481.897C121.599 483.763 125.791 485.719 129.856 487.801C135.115 490.492 140.163 493.389 145.253 496.589C150.343 499.788 155.481 503.294 160.919 507.185C163.699 509.179 166.47 511.044 169.213 512.887C180.188 520.275 190.646 527.309 197.336 539.362C195.28 533.025 191.921 527.715 187.165 522.659C179.661 514.691 168.658 507.322 153.834 497.644C146.5 492.862 139.387 488.48 131.883 484.706C124.408 480.936 116.542 477.77 107.684 475.386C103.177 474.175 98.1903 473.327 93.5847 474.599ZM183.585 560.235C181.552 559.208 179.388 557.908 177.116 556.329L175.907 555.627L178.198 635.459C179.911 636.373 180.889 636.726 181.599 636.58C182.286 636.434 182.978 635.704 184.069 634.465C184.549 621.39 184.21 608.715 183.872 596.04C183.556 584.214 183.241 572.392 183.585 560.235ZM173.974 554.51C159.028 545.893 153.251 543.07 134.372 540.338L133.991 540.286C127.499 539.343 120.771 538.373 116.331 537.181C123.495 542.283 129.018 546.915 133.746 552.291C140.662 560.155 145.846 569.565 151.91 584.294C153.825 588.935 155.372 593.557 156.398 598.613C157.419 603.669 157.913 609.144 157.71 615.486C157.565 619.967 157.569 624.895 158.506 629.136C159.404 633.23 161.178 636.693 164.541 638.465C165.901 639.186 167.42 639.275 169.297 638.781C171.217 638.272 173.494 637.169 176.302 635.506L173.974 554.51ZM75.7738 499.599C75.4822 497.71 75.4492 495.755 75.7221 493.729C76.1643 490.43 77.4204 486.948 79.6926 483.259C80.2901 482.288 80.9863 481.45 81.7908 480.724C85.3943 476.319 89.1014 473.864 93.0766 472.766C94.7138 472.314 96.3791 472.092 98.0963 472.059C95.5794 467.696 92.9261 462.259 90.4092 457.104C88.1511 452.486 86.0059 448.09 84.1759 444.919C79.2175 436.32 73.0124 426.044 66.3791 415.047C57.6478 400.572 48.1684 384.858 39.6863 369.927C37.8093 371.938 35.984 373.875 34.2292 375.731C24.8439 385.687 17.6274 393.349 12.0197 402.443C7.85632 409.204 5.02897 414.759 3.44829 419.513C1.89584 424.164 1.54771 428.037 2.30042 431.524C4.54442 441.923 28.7533 461.241 50.2713 478.415C60.0846 486.251 69.3429 493.639 75.7738 499.599ZM181.656 495.133C170.751 488.857 158.698 489.62 146.288 490.609C149.139 492.353 151.99 494.172 154.869 496.052C169.81 505.8 180.903 513.235 188.548 521.354C191.907 524.925 194.598 528.615 196.649 532.676C194.621 525.792 191.629 518.927 187.715 509.947C187.141 508.627 186.563 507.308 185.57 505.009C184.168 501.772 182.865 498.473 181.656 495.133ZM247.066 183.081C245.255 180.193 245.194 179.99 242.07 179.665C235.526 178.977 228.954 179.373 222.645 180.866C216.21 182.388 210.038 185.05 204.444 188.862L204.43 188.985L204.035 189.22C199.824 191.718 196.39 194.017 193.464 196.302C190.552 198.573 188.129 200.84 185.932 203.271C181.849 207.808 178.4 212.808 175.352 218.061C172.285 223.338 169.613 228.879 167.086 234.477C165.28 238.482 163.403 242.492 161.559 246.421C160.58 248.513 159.611 250.582 158.656 252.646C172.586 240.786 181.369 245.342 195.332 252.594C197.801 253.88 200.441 255.251 203.221 256.589C213.947 261.749 223.699 264.208 233.541 262.781C243.392 261.353 253.393 256.015 264.618 245.569C267.182 243.189 269.859 240.828 272.376 238.93C274.949 236.984 277.381 235.504 279.399 234.934C282.692 234.001 285.915 233.879 289.307 234.35C291.523 234.656 293.809 235.217 296.232 235.975C289.744 229.252 282.768 223.169 278.251 221.878C273.288 220.459 258.531 220.516 243.392 221.039C228.23 221.557 212.634 222.551 206.124 222.98L202.162 223.244L203.47 221.567C214.116 207.903 227.317 197.975 240.508 188.047C242.663 186.426 244.813 184.805 247.066 183.081ZM241.929 177.733C236.65 173.573 231.085 168.583 225.741 163.174C220.223 157.59 214.94 151.564 210.447 145.542C209.68 144.515 208.767 143.582 207.845 142.644C207.323 142.112 206.801 141.575 206.312 141.038C196.785 130.549 187.075 119.189 179.544 108.757C171.946 98.2359 166.541 88.6192 165.703 81.707C165.501 80.0202 165.365 78.1449 165.289 76.0151C165.214 73.9231 165.2 71.5908 165.228 68.9522V68.9239C165.134 58.4261 165.073 51.872 163.431 45.9728C162.523 42.7123 161.121 39.6166 158.943 36.1111C156.737 32.5584 153.745 28.6052 149.685 23.6626C147.295 20.746 144.684 18.065 141.758 15.7845C138.855 13.5228 135.637 11.6664 132.02 10.3895C128.223 9.05133 124.422 8.67439 118.485 8.23148C120.315 9.21153 122.103 10.267 123.834 11.3978C129.423 14.4416 130.9 16.2415 135.628 21.0287C142.708 28.1953 148.292 36.865 151.886 46.5241C152.22 47.2403 152.536 47.9282 152.827 48.5832L152.874 48.6868L153.199 50.3878C155.052 56.4094 156.144 62.7703 156.36 69.3574C156.534 71.7698 156.699 74.1823 156.864 76.5947L156.845 76.7078C156.45 79.1909 156.116 81.1651 155.819 82.9273C154.309 91.9221 153.693 95.6114 154.954 102.458C155.932 107.754 157.621 112.781 159.832 117.587C162.043 122.398 164.777 126.987 167.83 131.393C170.699 135.525 173.837 139.483 177.097 143.309C180.362 147.144 183.763 150.866 187.122 154.495C189.362 156.766 191.427 158.712 193.285 160.464C201.918 168.606 206.147 172.597 204.74 186.389C210.169 182.921 216.078 180.461 222.217 179.01C228.625 177.493 235.291 177.069 241.929 177.733ZM226.992 301.285C220.975 309.672 217.301 315.944 214.831 322.639C212.413 329.189 211.129 336.19 209.92 345.995C219.846 345.157 242.564 343.154 248.426 336.69C250.138 334.8 250.909 332.506 251.112 329.971C251.323 327.341 250.928 324.43 250.331 321.433C250.246 321.009 249.362 320.495 248.538 320.01C247.635 319.487 246.779 318.988 246.398 318.257L246.403 318.252C245.989 317.461 245.843 316.801 245.885 316.255C242.173 312.193 237.502 308.362 232.492 304.885C230.69 303.637 228.851 302.435 226.992 301.285ZM135.12 23.2385V23.6202L134.395 23.7992C131.258 24.5814 127.137 25.9666 123.796 28.2236C121.458 29.8067 119.511 31.8139 118.598 34.3347C117.935 36.1582 117.521 37.4398 117.662 37.8073C117.676 37.845 118.189 37.4162 119.567 36.6105C120.621 35.9933 121.694 35.3478 122.71 34.7352C129.018 30.947 133.036 28.5345 137.514 29.9575C139.599 30.6219 141.485 31.8563 143.188 33.4395C140.817 29.7879 138.112 26.3718 135.12 23.2385ZM154.464 69.6165L154.215 66.0874L151.345 50.8495C150.964 49.6245 150.555 48.4135 150.113 47.2167C148.861 44.5734 147.304 41.6097 145.437 38.9664C143.099 35.654 140.267 32.827 136.941 31.7715C133.281 30.6077 129.55 32.8458 123.684 36.3702C122.724 36.9451 121.703 37.5623 120.527 38.2502C117.775 39.8664 116.41 39.8334 115.888 38.4905C115.526 37.5529 116.006 35.9132 116.81 33.6845C117.878 30.7349 120.094 28.4309 122.733 26.6451C125.956 24.4636 129.837 23.0547 132.994 22.1972C132.852 21.9286 132.716 21.6459 132.655 21.2596C131.587 20.3266 130.66 19.2665 129.733 18.211L129.55 18.0084C127.414 16.2085 125.17 14.5406 122.827 13.0139L113.212 7.77915C104.725 4.00501 95.3395 1.90827 85.4743 1.90827C66.4121 1.90827 49.1563 9.72983 36.6661 22.3715C24.1759 35.0132 16.4513 52.4845 16.4513 71.784C16.4513 91.0881 24.1759 108.559 36.6661 121.201C49.1563 133.843 66.4121 141.664 85.4743 141.664C104.537 141.664 121.792 133.843 134.283 121.201C146.773 108.559 154.497 91.0881 154.497 71.784C154.497 71.0584 154.488 70.3374 154.464 69.6165ZM341.7 401.708C345.539 412.394 349.66 423.113 353.927 433.941L354.011 433.978C354.195 434.054 354.355 434.139 354.477 434.228C359.882 438.087 364.342 445.838 368.905 453.763C374.245 463.041 379.726 472.563 386.759 475.833C388.368 476.578 390.437 477.006 392.362 477.011C394.093 477.016 395.683 476.691 396.652 475.965C399.225 474.047 400.707 469.02 402.542 462.772C403.614 459.121 404.805 455.064 406.423 450.927C410.262 441.126 414.171 431.316 418.222 421.497L419.271 418.962L418.871 419.179C408.728 400.596 400.895 386.837 391.778 374.096C382.68 361.375 372.302 349.671 357.064 335.177C349.274 327.77 344.344 322.969 339.851 317.635C335.363 312.316 331.322 306.478 325.31 297.021L312.335 278.735L312.189 256.801C309.282 255.459 307.268 256.194 304.37 257.258C303.599 257.536 302.776 257.838 301.849 258.14C294.98 260.359 289.373 262.88 283.986 266.31C278.59 269.749 273.411 274.108 267.403 279.993C264.162 283.169 261.48 285.854 259.105 288.794C263.88 285.821 270.019 282.283 274.455 282.495C276.13 282.575 277.678 283.126 279.178 284.262C280.599 285.336 281.973 286.938 283.37 289.181C285.807 291.801 288.564 294.618 291.443 297.558C299.642 305.922 308.816 315.284 314.033 323.657C321.085 334.965 324.397 346.495 328.419 360.479C329.205 363.212 330.014 366.039 330.809 368.716C334.121 379.883 337.79 390.833 341.7 401.708ZM266.33 298.1C271.853 295.528 277.296 292.074 281.3 289.478C280.19 287.81 279.117 286.603 278.035 285.784C276.854 284.888 275.655 284.46 274.366 284.398C269.981 284.186 263.16 288.483 258.437 291.461C257.693 291.928 256.997 292.366 256.414 292.724L256.324 292.578C254.654 295.089 253.078 297.945 251.483 301.479C255.647 302.228 261.019 300.574 266.33 298.1ZM269.426 173.606C266.307 177.987 264.778 181.399 265.545 188.547C265.611 189.169 265.705 189.767 265.822 190.342C265.94 190.921 266.086 191.482 266.255 192.019C267.253 195.152 269.177 197.716 272.122 199.487C274.944 201.184 278.713 202.173 283.516 202.272C286.117 202.324 288.639 201.904 291.132 200.906C293.353 200.02 295.559 198.672 297.794 196.787C297.521 196.528 297.257 196.25 297.003 195.963C295.178 193.876 293.851 191.077 292.91 188.872C286.183 190.356 280.288 190.318 276.064 187.821C272.051 185.456 269.605 180.965 269.426 173.606ZM288.418 162.26C288.088 161.897 287.811 161.44 287.543 160.888C287.237 160.266 287.138 159.673 287.157 159.136C287.171 158.603 287.298 158.146 287.444 157.779C287.481 157.684 287.505 157.567 287.519 157.463C289.119 154.165 291.203 154.81 293.583 154.094C297.949 152.784 302.38 166.75 288.418 162.26ZM303.053 166.142C303.03 165.869 303.448 165.737 303.425 165.539C303.349 164.898 303.307 164.545 303.547 164.102H303.542C303.834 163.565 303.307 163.315 304.201 163.018L304.662 162.858L304.784 162.849C304.789 162.844 305.848 162.801 305.848 164.441C305.848 164.686 305.885 165.176 305.928 165.6C305.956 165.869 306.516 165.841 306.614 165.958C307.668 167.174 308.157 168.418 308.143 169.619C308.124 170.745 307.668 171.796 306.817 172.71C306.868 173.323 306.53 173.233 306.186 173.766C305.33 175.123 303.636 174.011 303.439 173.591C303.279 173.247 303.279 172.866 303.274 172.489C303.27 172.314 303.298 172.206 303.284 172.173C303.185 171.966 303.015 171.575 302.87 171.16C302.776 170.892 302.686 170.599 302.62 170.321C302.399 169.855 302.155 169.318 302.517 167.97C302.743 167.141 302.959 166.444 303.053 166.142Z" fill="black"/>
</svg>
